<svg width="24" height="24" viewBox="0 0 24 24" fill="none" xmlns="http://www.w3.org/2000/svg">
<path d="M7.25411 17.9999C6.93534 17.9999 6.61657 17.8825 6.36491 17.631C5.87836 17.1448 5.87836 16.3401 6.36491 15.8539L15.8609 6.36453C16.3474 5.87833 17.1527 5.87833 17.6393 6.36453C18.1258 6.85073 18.1258 7.65548 17.6393 8.14169L8.14331 17.631C7.90842 17.8825 7.57288 17.9999 7.25411 17.9999Z" fill="currentColor"/>
<path d="M16.7501 17.9999C16.4313 17.9999 16.1125 17.8825 15.8609 17.631L6.36491 8.14169C5.87836 7.65548 5.87836 6.85073 6.36491 6.36453C6.85145 5.87833 7.65676 5.87833 8.14331 6.36453L17.6393 15.8539C18.1258 16.3401 18.1258 17.1448 17.6393 17.631C17.3876 17.8825 17.0689 17.9999 16.7501 17.9999Z" fill="currentColor"/>
</svg>
