<svg width="25" height="24" viewBox="0 0 25 24" fill="none" xmlns="http://www.w3.org/2000/svg">
<path d="M16.3902 2H8.0102C4.3702 2 2.2002 4.17 2.2002 7.81V16.18C2.2002 19.83 4.3702 22 8.0102 22H16.3802C20.0202 22 22.1902 19.83 22.1902 16.19V7.81C22.2002 4.17 20.0302 2 16.3902 2ZM8.6702 10.98C8.9602 10.69 9.4402 10.69 9.7302 10.98L11.4502 12.7V6.51C11.4502 6.1 11.7902 5.76 12.2002 5.76C12.6102 5.76 12.9502 6.1 12.9502 6.51V12.7L14.6702 10.98C14.9602 10.69 15.4402 10.69 15.7302 10.98C16.0202 11.27 16.0202 11.75 15.7302 12.04L12.7302 15.04C12.6602 15.11 12.5802 15.16 12.4902 15.2C12.4002 15.24 12.3002 15.26 12.2002 15.26C12.1002 15.26 12.0102 15.24 11.9102 15.2C11.8202 15.16 11.7402 15.11 11.6702 15.04L8.6702 12.04C8.3802 11.75 8.3802 11.28 8.6702 10.98ZM18.4402 17.22C16.4302 17.89 14.3202 18.23 12.2002 18.23C10.0802 18.23 7.9702 17.89 5.9602 17.22C5.5702 17.09 5.3602 16.66 5.4902 16.27C5.6202 15.88 6.04019 15.66 6.4402 15.8C10.1602 17.04 14.2502 17.04 17.9702 15.8C18.3602 15.67 18.7902 15.88 18.9202 16.27C19.0402 16.67 18.8302 17.09 18.4402 17.22Z" fill="currentColor"/>
</svg>
