<svg width="25" height="24" viewBox="0 0 25 24" fill="none" xmlns="http://www.w3.org/2000/svg">
<path d="M20.1403 6.82006L14.3803 2.79006C12.8103 1.69006 10.4003 1.75006 8.89033 2.92006L3.88033 6.83006C2.88033 7.61006 2.09033 9.21006 2.09033 10.4701V17.3701C2.09033 19.9201 4.16033 22.0001 6.71033 22.0001H17.4903C20.0403 22.0001 22.1103 19.9301 22.1103 17.3801V10.6001C22.1103 9.25006 21.2403 7.59006 20.1403 6.82006ZM12.8503 18.0001C12.8503 18.4101 12.5103 18.7501 12.1003 18.7501C11.6903 18.7501 11.3503 18.4101 11.3503 18.0001V15.0001C11.3503 14.5901 11.6903 14.2501 12.1003 14.2501C12.5103 14.2501 12.8503 14.5901 12.8503 15.0001V18.0001Z" fill="#FDFDFD"/>
</svg>
