<svg width="4" height="14" viewBox="0 0 4 14" fill="none" xmlns="http://www.w3.org/2000/svg">
<path d="M2.00146 0.250122C1.17237 0.250122 0.501464 0.921031 0.501464 1.75012C0.501464 2.57921 1.17237 3.25012 2.00146 3.25012C2.83056 3.25012 3.50146 2.57921 3.50146 1.75012C3.50146 0.921031 2.83056 0.250122 2.00146 0.250122Z" fill="#FDFDFD"/>
<path d="M0.5 12.2501C0.5 11.421 1.17091 10.7501 2 10.7501C2.82909 10.7501 3.5 11.421 3.5 12.2501C3.5 13.0792 2.82909 13.7501 2 13.7501C1.17091 13.7501 0.5 13.0792 0.5 12.2501Z" fill="#FDFDFD"/>
<path d="M0.500976 7.00012C0.500976 6.17103 1.17189 5.50012 2.00098 5.50012C2.83007 5.50012 3.50098 6.17103 3.50098 7.00012C3.50098 7.82921 2.83007 8.50012 2.00098 8.50012C1.17189 8.50012 0.500976 7.82921 0.500976 7.00012Z" fill="#FDFDFD"/>
</svg>
