<svg width="25" height="24" viewBox="0 0 25 24" fill="none" xmlns="http://www.w3.org/2000/svg">
<path d="M16.3003 22.75H8.30029C4.65029 22.75 2.55029 20.65 2.55029 17V7C2.55029 3.35 4.65029 1.25 8.30029 1.25H16.3003C19.9503 1.25 22.0503 3.35 22.0503 7V17C22.0503 20.65 19.9503 22.75 16.3003 22.75ZM8.30029 2.75C5.44029 2.75 4.05029 4.14 4.05029 7V17C4.05029 19.86 5.44029 21.25 8.30029 21.25H16.3003C19.1603 21.25 20.5503 19.86 20.5503 17V7C20.5503 4.14 19.1603 2.75 16.3003 2.75H8.30029Z" fill="currentColor"/>
<path d="M9.30029 11.11C9.13029 11.11 8.96029 11.08 8.80029 11.01C8.34029 10.81 8.05029 10.36 8.05029 9.87V2C8.05029 1.59 8.39029 1.25 8.80029 1.25H15.8003C16.2103 1.25 16.5503 1.59 16.5503 2V9.85999C16.5503 10.36 16.2603 10.81 15.8003 11C15.3503 11.2 14.8203 11.11 14.4503 10.77L12.3003 8.79999L10.1503 10.78C9.91027 11 9.61029 11.11 9.30029 11.11ZM12.3003 7.21002C12.6003 7.21002 12.9103 7.31998 13.1503 7.53998L15.0503 9.28998V2.75H9.55029V9.28998L11.4503 7.53998C11.6903 7.31998 12.0003 7.21002 12.3003 7.21002Z" fill="currentColor"/>
<path d="M17.8003 14.75H13.5503C13.1403 14.75 12.8003 14.41 12.8003 14C12.8003 13.59 13.1403 13.25 13.5503 13.25H17.8003C18.2103 13.25 18.5503 13.59 18.5503 14C18.5503 14.41 18.2103 14.75 17.8003 14.75Z" fill="currentColor"/>
<path d="M17.8003 18.75H9.30029C8.89029 18.75 8.55029 18.41 8.55029 18C8.55029 17.59 8.89029 17.25 9.30029 17.25H17.8003C18.2103 17.25 18.5503 17.59 18.5503 18C18.5503 18.41 18.2103 18.75 17.8003 18.75Z" fill="currentColor"/>
</svg>
