<svg width="25" height="24" viewBox="0 0 25 24" fill="none" xmlns="http://www.w3.org/2000/svg">
<path d="M15.7301 2.5V8.4C15.7301 8.84 15.2101 9.06 14.8901 8.77L13.1401 7.16C12.9501 6.98 12.6501 6.98 12.4601 7.16L10.7101 8.76C10.3901 9.06 9.87012 8.83 9.87012 8.4V2.5C9.87012 2.22 10.0901 2 10.3701 2H15.2301C15.5101 2 15.7301 2.22 15.7301 2.5Z" fill="currentColor"/>
<path d="M17.7803 2.06001C17.4903 2.02001 17.2303 2.27001 17.2303 2.56001V8.58001C17.2303 9.34001 16.7803 10.03 16.0803 10.34C15.3803 10.64 14.5703 10.51 14.0103 9.99001L13.1403 9.19001C12.9503 9.01001 12.6603 9.01001 12.4603 9.19001L11.5903 9.99001C11.2303 10.33 10.7603 10.5 10.2903 10.5C10.0303 10.5 9.77029 10.45 9.52029 10.34C8.82029 10.03 8.37029 9.34001 8.37029 8.58001V2.56001C8.37029 2.27001 8.11029 2.02001 7.82029 2.06001C5.02029 2.41001 3.80029 4.30001 3.80029 7.00001V17C3.80029 20 5.30029 22 8.80029 22H16.8003C20.3003 22 21.8003 20 21.8003 17V7.00001C21.8003 4.30001 20.5803 2.41001 17.7803 2.06001ZM18.3003 18.75H9.80029C9.39029 18.75 9.05029 18.41 9.05029 18C9.05029 17.59 9.39029 17.25 9.80029 17.25H18.3003C18.7103 17.25 19.0503 17.59 19.0503 18C19.0503 18.41 18.7103 18.75 18.3003 18.75ZM18.3003 14.75H14.0503C13.6403 14.75 13.3003 14.41 13.3003 14C13.3003 13.59 13.6403 13.25 14.0503 13.25H18.3003C18.7103 13.25 19.0503 13.59 19.0503 14C19.0503 14.41 18.7103 14.75 18.3003 14.75Z" fill="currentColor"/>
</svg>
